# xmcd CD database file
#
# Track frame offsets:
#	150
#	16371
#	28382
#	39563
#	51709
#	62066
#	74507
#	85872
#	97680
#	110040
#	121021
#	141037
#	150777
#	162540
#	173088
#	183898
#	195078
#	207112
#	217937
#	227399
#	237890
#	249322
#	262226
#
# Disc length: 3663 seconds
#
# Revision: 2
# Processed by: cddbd v1.5.1PL0 Copyright (c) Steve Scherf et al.
# Submitted via: CDex 1.51
#
DISCID=320e4d17
DTITLE=Various Artist - The Gold Hits of the 60's
DYEAR=1900
DGENRE=
TTITLE0=Unchained Melody
TTITLE1=I'm surry-Breeda Lee
TTITLE2=Dream Lover-Boby Darin
TTITLE3=Calender Girl-Neal Sadaka
TTITLE4=Oh, Carol-Neal Sadaka
TTITLE5=All Alone Am I-Breeda Lee
TTITLE6=Voy Are My Destiny-Paul Anka
TTITLE7=Put Your Hands On My Shoulder-Paul Anka
TTITLE8=My Prayer-Platters
TTITLE9=Crazy Love-Paul Anka
TTITLE10=Night's in White Satin-The Moody Blues
TTITLE11=Loollopop
TTITLE12=Only You-Platters
TTITLE13=Diana-Paul Anka
TTITLE14=Donna-Richie Valance
TTITLE15=Only The Lonly-Roy Orbison
TTITLE16=Smoke Get's In Your Eye's-Platters
TTITLE17=One Way Ticket-Neal Sadaka
TTITLE18=Wonderful World-Sam Cock
TTITLE19=Runaway-Dall Shanon
TTITLE20=Sherry Lady-The Four Seasons
TTITLE21=When A Men Love A Woman-Timmy Urry
TTITLE22=Dosty Springfield
EXTD=
EXTT0=
EXTT1=Breeda Lee\n
EXTT2=Boby Darin\n
EXTT3=Neal Sadaka\n
EXTT4=Neal Sadaka\n
EXTT5=Breeda Lee\n
EXTT6=Paul Anka\n
EXTT7=Paul Anka\n
EXTT8=The Platters\n
EXTT9=Paul Anka\n
EXTT10=The Moody Blues
EXTT11=
EXTT12=The Platters
EXTT13=Paul Anka
EXTT14=Richie Valahes
EXTT15=Roy Orbison
EXTT16=The Platters
EXTT17=Neal Sadaka
EXTT18=Sam Cock
EXTT19=Dall shanon
EXTT20=The Four Seasons
EXTT21=Timmy Urry
EXTT22=
PLAYORDER=
